<mxfile host="app.diagrams.net" modified="2023-04-11T19:56:59.449Z" agent="Mozilla/5.0 (Macintosh; Intel Mac OS X 10_15_7) AppleWebKit/537.36 (KHTML, like Gecko) Chrome/111.0.0.0 Safari/537.36" version="21.1.6" etag="El5UTa3Waf66YpZMgoSQ" type="github">
  <diagram name="PÃ¡gina-1" id="60lGZ_whNaCYZoYLrHay">
    <mxGraphModel>
      <root>
        <mxCell id="0" />
        <mxCell id="1" parent="0" />
      </root>
    </mxGraphModel>
  </diagram>
</mxfile>
